<svg xmlns="http://www.w3.org/2000/svg" viewBox="0 0 339.25 213"><title>coroa</title><g id="Camada_2" data-name="Camada 2"><g id="Camada_1-2" data-name="Camada 1"><path d="M167.48,0h4.29a22,22,0,0,1,3.83,2.92c2.07,2.42,3.91,5.05,5.79,7.63,3.44,4.71,6.84,9.45,10.26,14.18L202,39.1l10.62,14.72,10.5,14.54c3.38,4.67,6.78,9.33,10.13,14,6.24,8.78,12.44,17.58,18.7,26.34,1,1.36,2.14,2.58,3.18,3.81,14.21-5.27,28.25-10.48,42.28-15.7,10.1-3.75,20.17-7.55,30.27-11.26,5.42-2,9-.51,11.55,4.61v3.87c-.86,4.15-1.88,8.27-2.57,12.45q-5.79,34.75-11.43,69.53c-1.56,9.6-3.13,19.2-4.43,28.83-.77,5.7-3.12,8.14-8.85,8.14H26a6.93,6.93,0,0,1-7.09-5.84c-.26-1.26-.36-2.54-.58-3.81-1.95-11.45-3.95-22.9-5.84-34.36Q7.25,137.51,2.12,106c-.66-4-1.41-8-2.12-12V90.18c2.64-5.23,6.11-6.6,11.74-4.54,7.83,2.86,15.67,5.72,23.48,8.64,13,4.85,25.91,9.75,38.87,14.6,3.33,1.25,6.67,2.43,10,3.64,1-1.08,1.92-2,2.7-3.08,3.7-5.06,7.35-10.16,11-15.24q5-6.92,10-13.84,6-8.33,12-16.66c3-4.15,6-8.28,9-12.43l10.62-14.72q5.23-7.27,10.49-14.55c4-5.55,8-11.06,11.94-16.68C163.38,3.13,165,1.12,167.48,0Zm2.26,20c-4,5.39-7.72,10.47-11.44,15.58q-5.16,7.08-10.26,14.2-5.44,7.53-10.87,15.07c-3.38,4.68-6.78,9.33-10.13,14q-9.37,13.15-18.7,26.36c-.44.62-1,1.15-1.48,1.77-2.6,3.62-5.17,7.26-7.85,11,1,.41,1.63.7,2.29.94q19.65,7.32,39.3,14.62c9.17,3.42,18.3,6.92,27.48,10.29a4.69,4.69,0,0,0,3,0C181.85,140,192.53,136,203.22,132l30.07-11.2c2.26-.84,4.5-1.74,7.1-2.75-3.11-4.17-6.06-8.08-8.95-12-3.53-4.83-7-9.7-10.51-14.54q-5.07-7-10.13-14l-11-15.25-10-13.85c-4-5.49-7.93-11-11.85-16.49C175.23,28,172.58,24.08,169.74,20ZM270.87,198.32l.12-.41c-6.2-2.28-12.41-4.54-18.61-6.84q-26.67-9.94-53.34-19.92c-9.36-3.5-18.69-7.06-28.06-10.52a4.12,4.12,0,0,0-2.62,0c-7.11,2.57-14.19,5.23-21.27,7.87l-30.47,11.37L73.49,195.92c-1.76.66-3.49,1.4-5.23,2.1l.1.3Zm51.15-95L263.85,125c4.1,5.6,8.09,11.05,12.06,16.5q4.84,6.65,9.65,13.31c3.84,5.32,7.68,10.62,11.47,16,2.53,3.56,4.93,7.2,7.47,10.74,1.12,1.56,2.45,3,3.84,4.65C312.91,158.48,317.43,131.12,322,103.3ZM30.91,186.14c1.46-1.76,2.79-3.21,4-4.79q5.25-7.14,10.39-14.37c6.33-8.89,12.59-17.82,18.94-26.7,3.6-5,7.31-10,11.2-15.28L17.23,103.31Zm16.49,3.41.21.41L148,152.52l-.1-.49L90.19,130.52c-1.79,2.27-3.57,4.37-5.18,6.61-5.17,7.16-10.26,14.39-15.42,21.57-1.61,2.25-3.38,4.38-5,6.63Q56,177.42,47.4,189.55Zm144-37.52-.07.51,100.84,37.6c-.65-1-1-1.62-1.38-2.17-2.44-3.33-4.9-6.63-7.32-10q-5-6.81-9.89-13.66-6.3-8.76-12.57-17.55c-3.9-5.43-7.8-10.85-11.74-16.35Z"/></g></g></svg>