<svg xmlns="http://www.w3.org/2000/svg" width="178" height="178" viewBox="0 0 178 178">
  <g id="Grupo_26" data-name="Grupo 26" transform="translate(-1403 -2002)">
    <circle id="Elipse_2" data-name="Elipse 2" cx="89" cy="89" r="89" transform="translate(1403 2002)" fill="#823dc3"/>
    <g id="Camada_1" data-name="Camada 1" transform="translate(1447 2034)">
      <path id="Caminho_5" data-name="Caminho 5" d="M32.784,113.73c-.254,3.391-.441,6.545-.735,9.682-.339,3.646-.786,7.28-1.13,10.92a2.883,2.883,0,0,0,.305,1.809c3,4.194,6.065,8.331,9.117,12.491l.288-.136c.124-2.2.317-4.409.362-6.619A24.87,24.87,0,0,1,43.212,131.7c.192-.418.3-.876.475-1.306a2.648,2.648,0,0,0-.718-3.391,5.229,5.229,0,0,1-.927-1.193,2.956,2.956,0,0,1-.113-3.126c.774-1.526,2.289-1.594,3.725-1.594s2.826.119,3.595,1.6a2.943,2.943,0,0,1-.565,3.714c-1.814,1.577-1.7,3.3-.752,5.177,2.114,4.245,2.261,8.84,2.447,13.424.051,1.164,0,2.334,0,3.81a4.244,4.244,0,0,0,.622-.475c2.679-3.516,5.324-7.054,8.037-10.541a5.827,5.827,0,0,0,1.13-4.584c-.627-5.562-1.1-11.135-1.605-16.708-.073-.791,0-1.6,0-2.623.565.226,1.04.407,1.5.616,4.488,2.007,8.948,4.087,13.475,6a27.7,27.7,0,0,0,5.421,1.566,5.884,5.884,0,0,1,4.578,3.182,56.346,56.346,0,0,1,2.826,6.851,101.39,101.39,0,0,1,4.313,20.32c.068.678,0,1.046-.712,1.351a110.751,110.751,0,0,1-35.609,9.123,109.043,109.043,0,0,1-52.47-8.614c-1.956-.831-2.04-.831-1.78-2.928A102.938,102.938,0,0,1,5.76,127.866a21.213,21.213,0,0,1,1.6-3,5.862,5.862,0,0,1,4.149-2.781,39.674,39.674,0,0,0,6.376-1.86c4.522-1.86,8.925-3.923,13.379-5.9C31.653,114.16,32.032,114.018,32.784,113.73Z" transform="translate(-0.001 -49.447)" fill="#fff"/>
      <path id="Caminho_6" data-name="Caminho 6" d="M45.506,56.76,35.258,55.59l.215-1.543c-.509.452-.921,1.1-1.458,1.232a5.4,5.4,0,0,1-1.91-.294l1.458-5.494c-.967,1.436-1.837,2.792-2.775,4.109a1.628,1.628,0,0,1-2.2.565c-1.294-.565-2.617-1.091-4.013-1.7,4.16-4.369,5.415-9.778,6.325-15.182.989-5.878,1.436-11.87,2.091-17.776A21.949,21.949,0,0,1,39.424,5.754c1.7-1.662,3.714-2.617,6.217-1.933a.972.972,0,0,0,.786-.164C50.469.045,55.279-.52,60.366.373A28.092,28.092,0,0,1,72.4,5.6c5.353,3.957,7.546,9.479,7.828,15.945.22,4.963.452,9.92.774,14.877a26.185,26.185,0,0,0,2.464,10.491c1.012,1.95,2.368,3.725,3.674,5.731a12.548,12.548,0,0,1-2.419,1c-4.771.978-9.558,1.871-14.34,2.775-.622.119-1.255.164-1.882.22-2.046.2-2.261.226-2.007,2.193a6.909,6.909,0,0,1-3.273,7.218,58.159,58.159,0,0,0-4.855,4.217,4.806,4.806,0,0,1-4.895,0c-2.408-2.176-4.827-4.324-7.178-6.557a2.77,2.77,0,0,1-.757-1.7C45.444,60.275,45.506,58.552,45.506,56.76Z" transform="translate(-10.683 0)" fill="#fff"/>
    </g>
  </g>
</svg>
