<svg xmlns="http://www.w3.org/2000/svg" width="178" height="178" viewBox="0 0 178 178">
  <g id="Grupo_24" data-name="Grupo 24" transform="translate(-700 -2002)">
    <circle id="Elipse_2" data-name="Elipse 2" cx="89" cy="89" r="89" transform="translate(700 2002)" fill="#823dc3"/>
    <g id="Camada_1" data-name="Camada 1" transform="translate(734.744 2036.52)">
      <path id="Caminho_7" data-name="Caminho 7" d="M125.314,114.851c0-2.369.053-4.826,0-7.26-.2-7.135-2.961-12.932-9.545-16.13C112.086,89.686,110.9,87.4,111,83.273c.32-13.1.2-26.214.053-39.318,0-2.5.675-3.3,3.156-3.689,19.913-3.091,39.081,11.547,42.278,32.407,2.961,19.582-11.322,39.371-30.566,42.272A3.606,3.606,0,0,1,125.314,114.851ZM134.64,75.77a3.908,3.908,0,0,0-.776-.249c-2.262,0-4.524,0-6.786-.047-3.476,0-4.115-.651-4.145-4.145v-12.3H118.2v10.38c0,2.209.207,4.3-1.622,6.265-1.569,1.7-.882,3.944.793,5.554,1.581,1.516,3.772,2.126,5.329.622,1.948-1.871,4.056-1.611,6.265-1.634h5.667ZM118.368,44.808v9.137h4.364V44.808ZM153.63,75.682h-9.19v4.293h9.19Zm-8.414-17.711c-.93-1.131-1.877-2.292-2.523-3.085l-6.738,6.087,2.813,3.3Zm-6.063,33.858-3.511,2.588,6.561,6.513,3.008-2.813Z" transform="translate(-45.269 -16.255)" fill="#fff"/>
      <path id="Caminho_8" data-name="Caminho 8" d="M11.914,159.605v-7.212H7.307v7.236H.089c0-7.106-.266-14.146.124-21.163.178-3.18,2.369-5.791,5.246-7.514,3.1-1.871,6.223-3.707,9.634-5.732,1.285,6.869,4.447,12.239,10.108,15.934a21.222,21.222,0,0,0,12.926,3.47c10.623-.539,18.019-7.307,21.175-19.985,4.471,3.02,9.03,5.525,12.814,8.882,1.812,1.617,2.83,4.844,3.014,7.431.426,6.081.136,12.21.136,18.557H66.455v-7.106H61.582v7.165Z" transform="translate(0 -50.836)" fill="#fff"/>
      <path id="Caminho_9" data-name="Caminho 9" d="M23.165,69.771V38.631c0-5.43-.047-10.854,0-16.278C23.331,9.7,33.717-.036,47.023,0c13.1.036,23.407,9.776,23.49,22.371.089,14.987,0,29.98,0,45,0,.592-.053,1.149-.118,2.4-3.292-2.067-6.466-3.636-9.125-5.838-2.836-2.369-2.83-9.2-.5-12.228a22.9,22.9,0,0,0,5-13.945c.065-5.128-.065-10.262.053-15.4.059-2.309-.865-3.553-3.073-3.9a1.107,1.107,0,0,1-.284-.065,22.451,22.451,0,0,0-19.493-1.7c-3.316,1.184-7.419.326-11.162.184-2.824-.113-3.944,1.113-3.914,3.831.059,5.921-.071,11.843.065,17.764a22.075,22.075,0,0,0,4.352,12.376,10.362,10.362,0,0,1-2.084,14.543A81.442,81.442,0,0,1,23.165,69.771Z" transform="translate(-9.44 0)" fill="#fff"/>
      <path id="Caminho_10" data-name="Caminho 10" d="M39.179,35.247c3.642,0,6.792.041,9.93,0,1.279,0,2.836.172,3.772-.462,5.329-3.6,9.77-.3,14.537,1.723,0,5.548.338,11.251-.1,16.905a16.759,16.759,0,0,1-6.6,11.807c-4.619,3.713-9.989,3.725-14.62,0a18.71,18.71,0,0,1-6.715-11.783,18.948,18.948,0,0,1-.189-3.233C39.173,45.308,39.179,40.4,39.179,35.247Z" transform="translate(-15.98 -13.534)" fill="#fff"/>
      <path id="Caminho_11" data-name="Caminho 11" d="M43.591,97.06c6.513,2.315,8.112,2.321,14.857.083a1.93,1.93,0,0,1,.278.711c-.095,5.507,2.416,9.433,7.26,11.89,1.54.782,2.44,1.617,2.185,3.606a17.616,17.616,0,0,1-17.539,15.318c-8.764-.083-16.319-6.75-17.142-15.307a3.665,3.665,0,0,1,1.232-2.842C40.589,106.386,42.034,104.331,43.591,97.06Z" transform="translate(-13.659 -39.587)" fill="#fff"/>
      <path id="Caminho_12" data-name="Caminho 12" d="M124.953,118.1v-4.3c26.2-5.11,38.335-28.079,35.741-47.643A41.616,41.616,0,0,0,143.41,36.966c-9.806-7.165-20.849-9.427-32.94-7.514l-.77-4.364c16.319-2.961,30.43,1,42.32,12.245a47.119,47.119,0,0,1,11.1,51.77C156.692,105.044,139.674,118.029,124.953,118.1Z" transform="translate(-44.743 -9.847)" fill="#fff"/>
    </g>
  </g>
</svg>
