<svg xmlns="http://www.w3.org/2000/svg" width="178" height="178" viewBox="0 0 178 178">
  <g id="Grupo_23" data-name="Grupo 23" transform="translate(-348 -2002)">
    <circle id="Elipse_2" data-name="Elipse 2" cx="89" cy="89" r="89" transform="translate(348 2002)" fill="#823dc3"/>
    <path id="Caminho_13" data-name="Caminho 13" d="M104.625,70.2c-.075.716-.143,1.432-.225,2.141a31.842,31.842,0,0,1-2.612,9.452,32.967,32.967,0,0,1-23.024,18.673c-.743.164-1.494.293-2.257.443v19.178H95.228v9.391H76.5V148.21H67.1V129.483H48.368v-9.391h18.7V101c-1.644-.409-3.274-.73-4.856-1.214a32.224,32.224,0,0,1-14.97-9.6A31.529,31.529,0,0,1,39.4,73.812,32.785,32.785,0,0,1,91.824,42.5a32.5,32.5,0,0,1,10.912,15,31.419,31.419,0,0,1,1.8,8.784,3.616,3.616,0,0,0,.068.375Zm-9.364-1.719A23.4,23.4,0,1,0,88.418,85.09,23.461,23.461,0,0,0,95.262,68.479Z" transform="translate(365.216 2011.223)" fill="#fff"/>
    <path id="Caminho_14" data-name="Caminho 14" d="M165.944,74.1a45.567,45.567,0,0,1-6.349,1.494,32.573,32.573,0,0,1-7.816-.13,3.874,3.874,0,0,1-2.476-2.6c-.157-.8,1.1-2.728,1.8-2.728,4.4-.211,8.818-.082,13.224.061.552,0,1.078.764,1.616,1.173Z" transform="translate(330.133 2000.282)" fill="#fff"/>
    <path id="Caminho_15" data-name="Caminho 15" d="M88.794,8.281c0,1.814.348,3.73-.13,5.408-.314,1.1-1.821,2.564-2.81,2.578a3.852,3.852,0,0,1-2.864-2.489,61.419,61.419,0,0,1,0-11.2c.089-1,2-2.728,2.728-2.564a4.774,4.774,0,0,1,2.946,2.864c.5,1.664.123,3.587.123,5.4Z" transform="translate(351.299 2022.55)" fill="#fff"/>
    <path id="Caminho_16" data-name="Caminho 16" d="M42.671,21.207c-.464.682-.846,1.862-1.6,2.2-.893.4-2.53.559-3.124,0a99.657,99.657,0,0,1-8.607-8.7c-.5-.58-.177-2.578.464-3.26s2.673-1.071,3.219-.593c3.144,2.728,6.036,5.8,8.982,8.777C42.3,19.932,42.351,20.437,42.671,21.207Z" transform="translate(368.356 2019.165)" fill="#fff"/>
    <path id="Caminho_17" data-name="Caminho 17" d="M126.623,24.048c-.511-.368-1.657-.777-1.971-1.534-.368-.893-.45-2.476.1-3.083a96.005,96.005,0,0,1,8.429-8.4,3.435,3.435,0,0,1,3.308.164c.716.587,1.3,2.728.866,3.192-2.919,3.28-6.138,6.315-9.261,9.391C127.892,23.98,127.435,23.912,126.623,24.048Z" transform="translate(338.062 2019.154)" fill="#fff"/>
    <path id="Caminho_18" data-name="Caminho 18" d="M8.587,69.751c1.7,0,3.5-.348,5.06.109,1.139.334,2.68,1.691,2.728,2.653A3.8,3.8,0,0,1,13.92,75.35a71.465,71.465,0,0,1-11.526,0c-.914-.068-2.489-1.787-2.387-2.564a4.126,4.126,0,0,1,2.5-2.905C4.434,69.417,6.548,69.751,8.587,69.751Z" transform="translate(377.608 2000.41)" fill="#fff"/>
    <path id="Caminho_19" data-name="Caminho 19" d="M104.541,65.609a50.641,50.641,0,0,1,1.569,5.9,26.754,26.754,0,0,1,0,5.579,2.68,2.68,0,0,1-2.817,2.394,2.612,2.612,0,0,1-2.476-2.728,38.873,38.873,0,0,0-.45-6.383c-.893-4.16-3.833-6.82-7.277-9.036A25.034,25.034,0,0,0,84.8,58.366a2.557,2.557,0,0,1-2.128-2.285,2.291,2.291,0,0,1,1.453-2.51,4.583,4.583,0,0,1,2.442-.191,31.058,31.058,0,0,1,11.764,5.054A24.136,24.136,0,0,1,104.541,65.609Z" transform="translate(351.327 2005.603)" fill="#fff"/>
  </g>
</svg>
