<svg xmlns="http://www.w3.org/2000/svg" width="179" height="178" viewBox="0 0 179 178">
  <g id="Grupo_25" data-name="Grupo 25" transform="translate(-1051 -2002)">
    <ellipse id="Elipse_2" data-name="Elipse 2" cx="89.5" cy="89" rx="89.5" ry="89" transform="translate(1051 2002)" fill="#823dc3"/>
    <g id="Camada_1" data-name="Camada 1" transform="translate(1067 2053)">
      <path id="Caminho_2" data-name="Caminho 2" d="M56.548,73.377c-.868.636-8.7,3.428-9.593,4.039-2.525,1.722-6.322,2.525-9.23,3.575A15.567,15.567,0,0,1,30.464,82a11.007,11.007,0,0,1-7.1-3.691c-.268-.3-.54-1.01-.4-1.161a2.02,2.02,0,0,1,1.308-.555c1.585-.081,3.176,0,4.761-.086a21.206,21.206,0,0,0,8.124-2.131c1.368-.656,2.721-1.363,4.08-2.05l-.061-.2a6.994,6.994,0,0,0-1.131.283A36.036,36.036,0,0,1,28.98,75.351a19.121,19.121,0,0,1-12.916-3.534A35.667,35.667,0,0,1,9.732,65.94c-.212-.247-.4-.793-.278-1.01.283-.5.752-.172,1.121,0a45.78,45.78,0,0,0,9.952,4.1,22.969,22.969,0,0,0,9.593.313.5.5,0,0,0,.364-.283H29.025a24.645,24.645,0,0,1-13.3-3.358,28.927,28.927,0,0,1-7.417-6.281c-1.166-1.383-2.282-2.807-3.373-4.246-.177-.232-.116-.646-.167-.974.328.056.737,0,.969.177a43.029,43.029,0,0,0,9.593,5.973,26.255,26.255,0,0,0,10.194,2.02c.631,0,1.262,0,1.9-.035.03,0,.066-.076.136-.167-1.363-.283-2.7-.545-4.039-.843A28.471,28.471,0,0,1,11.908,56.1,30.088,30.088,0,0,1,6.97,51.055a70.367,70.367,0,0,1-6.12-9.826c-.066-.116-.172-.242-.167-.358a7.917,7.917,0,0,1,.121-.9c.273.106.631.136.813.328,1.6,1.742,3.136,3.534,4.736,5.266a34.34,34.34,0,0,0,15.067,9.906c1.3.409,2.626.762,3.943,1.141l.076-.2c-.813-.364-1.621-.747-2.439-1.1a39.853,39.853,0,0,1-11.391-7.347,37.662,37.662,0,0,1-6.448-7.574C3.532,37.765,1.911,35.069.285,32.428A1.515,1.515,0,0,1,0,31.853a3.257,3.257,0,0,1,.066-.793c.263.061.6.04.778.2a15.513,15.513,0,0,1,1.282,1.288,92.246,92.246,0,0,0,13.224,12.2,45.245,45.245,0,0,0,16.627,7.4c5.019,1.131,17.026,4.408,22.04,5.579" transform="translate(0.005 -15.364)" fill="#fff"/>
      <path id="Caminho_3" data-name="Caminho 3" d="M110.227,76.674h-33.4c-1.57,0-2.146-.666-1.707-2.141.894-2.974,1.833-5.938,2.792-8.892a5.716,5.716,0,0,1,3.3-3.605c2.277-.954,4.595-1.808,6.927-2.615a1.611,1.611,0,0,0,1.151-1.131,16.97,16.97,0,0,0,.364-9.326c-.934-3.959-2.02-7.872-3.166-11.78A38.48,38.48,0,0,1,86.6,15.079C89.126,6.551,95.019,1.79,103.739.452A36.228,36.228,0,0,1,120.012,1.5c7.614,2.328,12.264,7.422,14.213,15.107a50.692,50.692,0,0,1,1.05,16.576c-.384,4.948-1.848,9.649-3.029,14.425A36.859,36.859,0,0,0,131,58.28a1.065,1.065,0,0,0,.858,1.111c2.484.924,4.958,1.888,7.412,2.913a5.155,5.155,0,0,1,2.934,3.115q1.681,4.726,3.216,9.508c.333,1.01-.343,1.727-1.55,1.732H110.227ZM98.851,16.351a1.323,1.323,0,0,0-.192.2c-3.741,6.059-5.433,12.476-3.736,19.586,1.181,4.953,3.216,9.417,7.15,12.8,3.065,2.636,6.564,3.933,10.639,2.979a15.291,15.291,0,0,0,9-6.463,26.043,26.043,0,0,0,4.494-11.4c.217-1.378.293-2.777.434-4.186-.409-.05-.641-.1-.879-.111a41.474,41.474,0,0,1-11.5-2.525,70.006,70.006,0,0,1-7.256-3.09A19.555,19.555,0,0,1,98.851,16.351Zm8.957,47.76c-1.818,1.257-2.939.889-3.893-1.282a2.1,2.1,0,0,1-2.873-2.479,1.621,1.621,0,0,0-.313-1.56L87.612,62.284c10.851,7.841,33.829,7.882,44.937.056-.2-.071-.364-.146-.5-.192q-6.059-1.515-12.073-3.029c-1.1-.273-1.222-.126-1.01,1.01a2.1,2.1,0,0,1-2.222,2.525,5.373,5.373,0,0,1-.773-.111,2.2,2.2,0,0,1-1.515,2.176,2.25,2.25,0,0,1-2.525-.959A2.181,2.181,0,0,1,107.808,64.111Zm6.948-3.388c.4-1.8.788-2.116,2.651-2.227.56-.035.752-.293.565-.909a30.39,30.39,0,0,1-.843-3.534,8.124,8.124,0,0,1,.1-1.868c-4.771,2.767-9.482,3.029-14.309-.04a8.493,8.493,0,0,1-.666,5.594c-.126.278.04.687.071,1.081a2.268,2.268,0,0,1,2.868,1.954,2.149,2.149,0,0,1,2.817,1.01,6.078,6.078,0,0,1,2.02-.5,5.6,5.6,0,0,1,1.772.848c.55-1.308,1.227-1.661,2.934-1.419Zm11.108-21.3c-2.146,3.858-1.823,7.72-.035,11.613,2.015-4.746,1.949-6.922.03-11.628ZM94.978,51.034c1.545-3.9,2.227-7.771,0-11.527-2.141,3.752-1.737,7.619-.005,11.512Zm8.079,10.709c.288-.434.566-.672.56-.9s-.369-.56-.5-.5a.863.863,0,0,0-.6.545c-.071.162.247.419.525.848Zm10.77.071c-.278.47-.535.712-.5.934s.369.54.5.5a.853.853,0,0,0,.581-.54c-.005-.207-.3-.459-.6-.914Zm3.09-.369c.288-.434.56-.666.56-.9s-.358-.571-.5-.54a.858.858,0,0,0-.606.535c-.04.192.252.454.53.894Zm-6.18,1.843c-.465-.263-.712-.5-.934-.5s-.5.379-.5.5a.843.843,0,0,0,.55.576c.187.03.429-.258.868-.591Zm-3.7-.631c-.475-.252-.747-.5-.954-.5a.848.848,0,0,0-.5.621c0,.146.364.47.555.465s.449-.278.884-.6Z" transform="translate(-37.117 0.026)" fill="#fff"/>
      <path id="Caminho_4" data-name="Caminho 4" d="M178.42,73.812c.874.641,8.7,3.428,9.593,4.039,2.525,1.727,6.322,2.55,9.23,3.58a15.652,15.652,0,0,0,7.261,1.01,11.053,11.053,0,0,0,7.1-3.691c.268-.3.54-1.01.4-1.166a2.045,2.045,0,0,0-1.308-.555c-1.585-.076-3.176,0-4.761-.086a21.3,21.3,0,0,1-8.124-2.126c-1.368-.661-2.716-1.368-4.08-2.05l.061-.2a6.992,6.992,0,0,1,1.131.283,36.066,36.066,0,0,0,11.053,2.928,19.121,19.121,0,0,0,12.916-3.534,35.309,35.309,0,0,0,6.332-5.877c.217-.247.4-.788.278-1.01-.283-.5-.752-.172-1.121,0a45.533,45.533,0,0,1-9.952,4.1,22.882,22.882,0,0,1-9.593.313.5.5,0,0,1-.358-.283h1.454a24.65,24.65,0,0,0,13.3-3.363,29.013,29.013,0,0,0,7.448-6.266c1.161-1.383,2.277-2.807,3.368-4.251.177-.232.121-.641.167-.969-.323.05-.737,0-.964.172a43.14,43.14,0,0,1-9.593,5.973,26.255,26.255,0,0,1-10.194,2.02c-.636,0-1.267,0-1.9-.035-.035,0-.066-.076-.141-.167,1.363-.283,2.7-.54,4.039-.838a28.471,28.471,0,0,0,11.613-5.226,30.471,30.471,0,0,0,4.938-5.049,74.744,74.744,0,0,0,6.109-9.861c.066-.116.172-.242.167-.358a7.682,7.682,0,0,0-.121-.9c-.273.1-.631.131-.808.323-1.6,1.742-3.136,3.534-4.741,5.266a34.34,34.34,0,0,1-15.067,9.906c-1.3.409-2.626.762-3.943,1.141l-.076-.192c.813-.369,1.621-.747,2.439-1.1A39.974,39.974,0,0,0,223.337,48.4a37.686,37.686,0,0,0,6.453-7.574c1.651-2.646,3.262-5.317,4.888-7.983a1.615,1.615,0,0,0,.278-.571,3.581,3.581,0,0,0-.071-.8c-.263.061-.6.04-.778.2a16.377,16.377,0,0,0-1.272,1.308,92.232,92.232,0,0,1-13.224,12.194,45.22,45.22,0,0,1-16.627,7.392c-5.019,1.126-17.026,4.4-22.04,5.554" transform="translate(-88.33 -15.572)" fill="#fff"/>
    </g>
  </g>
</svg>
